<?xml version="1.0" encoding="UTF-8" standalone="no"?>
<svg
   width="256"
   height="256"
   viewBox="0 0 100 100"
   version="1.1"
   id="svg23"
   sodipodi:docname="favicon.svg"
   inkscape:version="1.1.2 (b8e25be833, 2022-02-05)"
   xmlns:inkscape="http://www.inkscape.org/namespaces/inkscape"
   xmlns:sodipodi="http://sodipodi.sourceforge.net/DTD/sodipodi-0.dtd"
   xmlns="http://www.w3.org/2000/svg"
   xmlns:svg="http://www.w3.org/2000/svg">
  <defs
     id="defs27" />
  <sodipodi:namedview
     id="namedview25"
     pagecolor="#ffffff"
     bordercolor="#999999"
     borderopacity="1"
     inkscape:pageshadow="0"
     inkscape:pageopacity="0"
     inkscape:pagecheckerboard="0"
     showgrid="false"
     inkscape:zoom="0.55795145"
     inkscape:cx="-569.94206"
     inkscape:cy="299.3092"
     inkscape:window-width="1920"
     inkscape:window-height="1017"
     inkscape:window-x="-8"
     inkscape:window-y="-8"
     inkscape:window-maximized="1"
     inkscape:current-layer="svg23" />
  <path
     id="rect19"
     style="stroke-width:2.56;fill:#ffd600;fill-opacity:1.0"
     d="M 256 127.36914 L 0 127.67383 L 0 204.80078 C 9.4739031e-15 233.16558 22.834419 256 51.199219 256 L 204.80078 256 C 233.16558 256 256 233.16558 256 204.80078 L 256 127.36914 z "
     transform="scale(0.390625)" />
  <path
     id="path2203"
     style="stroke-width:2.56;fill:#005bbc;fill-opacity:1.0"
     d="M 51.199219 0 C 22.834419 9.4739031e-15 0 22.834419 0 51.199219 L 0 127.67383 L 256 127.36914 L 256 51.199219 C 256 22.834419 233.16558 0 204.80078 0 L 51.199219 0 z "
     transform="scale(0.390625)" />
  <path
     d="m 53.119998,70.04 h -6.24 q -0.8,-1.92 -2.12,-4.88 -1.32,-2.96 -2.84,-6.4 -1.52,-3.44 -3.239996,-7.08 -1.72,-3.64 -3.24,-6.88 -1.52,-3.24 -2.84,-5.8 -1.32,-2.56 -2.12,-3.92 v 0 q -0.88,9.44 -1.44,20.44 -0.56,11 -0.96,22.2 v 0 h -7.6 q 0.32,-7.2 0.72,-14.52 0.4,-7.32 0.92,-14.4 0.52,-7.08 1.12,-13.8 0.6,-6.72 1.32,-12.72 v 0 h 6.8 q 2.16,3.52 4.64,8.32 2.48,4.8 4.959996,10.04 2.48,5.24 4.8,10.48 2.32,5.24 4.24,9.56 v 0 q 1.92,-4.32 4.24,-9.56 2.32,-5.24 4.8,-10.48 2.48,-5.24 4.96,-10.04 2.48,-4.8 4.64,-8.32 v 0 h 6.8 q 2.72,26.8 4.08,55.44 v 0 h -7.6 q -0.4,-11.2 -0.96,-22.2 -0.56,-11 -1.44,-20.44 v 0 q -0.8,1.36 -2.12,3.92 -1.32,2.56 -2.84,5.8 -1.52,3.24 -3.24,6.88 -1.72,3.64 -3.24,7.08 -1.52,3.44 -2.84,6.4 -1.32,2.96 -2.12,4.88 z"
     fill="#ffffff"
     id="path21"
     style="fill:#1abc9c;fill-opacity:1.0" />
</svg>
