<svg xmlns="http://www.w3.org/2000/svg" width="256" height="256" viewBox="0 0 100 100">
    <rect width="100" height="100" rx="20" fill="#1abc9c">
    </rect>
    <path d="M53.12 70.04L46.88 70.04Q46.08 68.12 44.76 65.16Q43.44 62.20 41.92 58.76Q40.40 55.32 38.68 51.68Q36.96 48.04 35.44 44.80Q33.92 41.56 32.60 39Q31.28 36.44 30.48 35.08L30.48 35.08Q29.60 44.52 29.04 55.52Q28.48 66.52 28.08 77.72L28.08 77.72L20.48 77.72Q20.80 70.52 21.20 63.20Q21.60 55.88 22.12 48.80Q22.64 41.72 23.24 35Q23.84 28.28 24.56 22.28L24.56 22.28L31.36 22.28Q33.52 25.80 36 30.60Q38.48 35.40 40.96 40.64Q43.44 45.88 45.76 51.12Q48.08 56.36 50 60.68L50 60.68Q51.92 56.36 54.24 51.12Q56.56 45.88 59.04 40.64Q61.52 35.40 64 30.60Q66.48 25.80 68.64 22.28L68.64 22.28L75.44 22.28Q78.16 49.08 79.52 77.72L79.52 77.72L71.92 77.72Q71.52 66.52 70.96 55.52Q70.40 44.52 69.52 35.08L69.52 35.08Q68.72 36.44 67.40 39Q66.08 41.56 64.56 44.80Q63.04 48.04 61.32 51.68Q59.60 55.32 58.08 58.76Q56.56 62.20 55.24 65.16Q53.92 68.12 53.12 70.04L53.12 70.04Z" fill="#fff">
    </path>
</svg>
